<svg width="24" height="24" viewBox="0 0 24 24" fill="none" xmlns="http://www.w3.org/2000/svg">
<path d="M24 0V24H0V0H24ZM12.593 23.258L12.582 23.26L12.511 23.295L12.491 23.299L12.477 23.295L12.406 23.26C12.396 23.256 12.387 23.259 12.382 23.265L12.378 23.275L12.361 23.703L12.366 23.723L12.376 23.736L12.48 23.81L12.495 23.814L12.507 23.81L12.611 23.736L12.623 23.72L12.627 23.703L12.61 23.276C12.608 23.266 12.601 23.259 12.593 23.258ZM12.858 23.145L12.845 23.147L12.66 23.24L12.65 23.25L12.647 23.261L12.665 23.691L12.67 23.703L12.678 23.71L12.879 23.803C12.891 23.807 12.902 23.803 12.908 23.795L12.912 23.781L12.878 23.167C12.875 23.155 12.868 23.147 12.858 23.145ZM12.143 23.147C12.1385 23.1449 12.1334 23.1444 12.1285 23.1455C12.1236 23.1466 12.1192 23.1492 12.116 23.153L12.11 23.167L12.076 23.781C12.076 23.793 12.083 23.801 12.093 23.805L12.108 23.803L12.309 23.71L12.319 23.702L12.323 23.691L12.34 23.261L12.337 23.249L12.327 23.239L12.143 23.147Z" fill="#1A1A1A"/>
<path d="M12.7064 3.63654C12.5188 3.44907 12.2645 3.34375 11.9994 3.34375C11.7342 3.34375 11.4799 3.44907 11.2924 3.63654L5.63537 9.29354C5.53986 9.38578 5.46367 9.49613 5.41126 9.61813C5.35886 9.74014 5.33127 9.87136 5.33012 10.0041C5.32896 10.1369 5.35426 10.2686 5.40454 10.3915C5.45483 10.5144 5.52908 10.626 5.62297 10.7199C5.71686 10.8138 5.82852 10.8881 5.95141 10.9384C6.07431 10.9886 6.20599 11.0139 6.33877 11.0128C6.47155 11.0116 6.60277 10.984 6.72477 10.9316C6.84677 10.8792 6.95712 10.803 7.04937 10.7075L10.9994 6.75754V20.0005C10.9994 20.2658 11.1047 20.5201 11.2923 20.7076C11.4798 20.8952 11.7341 21.0005 11.9994 21.0005C12.2646 21.0005 12.5189 20.8952 12.7065 20.7076C12.894 20.5201 12.9994 20.2658 12.9994 20.0005V6.75754L16.9494 10.7075C17.138 10.8897 17.3906 10.9905 17.6528 10.9882C17.915 10.9859 18.1658 10.8808 18.3512 10.6954C18.5366 10.5099 18.6418 10.2591 18.644 9.99694C18.6463 9.73474 18.5455 9.48214 18.3634 9.29354L12.7064 3.63654Z" fill="#CD7F32"/>
</svg>
