<svg width="14" height="18" viewBox="0 0 14 18" fill="none" xmlns="http://www.w3.org/2000/svg">
<path d="M7.70637 0.636536C7.51884 0.449065 7.26453 0.34375 6.99937 0.34375C6.7342 0.34375 6.47989 0.449065 6.29237 0.636536L0.635367 6.29354C0.539856 6.38578 0.463674 6.49613 0.411265 6.61813C0.358856 6.74014 0.33127 6.87136 0.330116 7.00414C0.328962 7.13691 0.354264 7.26859 0.404545 7.39149C0.454826 7.51439 0.529079 7.62604 0.622972 7.71993C0.716864 7.81382 0.828516 7.88808 0.951412 7.93836C1.07431 7.98864 1.20599 8.01394 1.33877 8.01279C1.47155 8.01163 1.60277 7.98405 1.72477 7.93164C1.84677 7.87923 1.95712 7.80305 2.04937 7.70754L5.99937 3.75754V17.0005C5.99937 17.2658 6.10472 17.5201 6.29226 17.7076C6.4798 17.8952 6.73415 18.0005 6.99937 18.0005C7.26458 18.0005 7.51894 17.8952 7.70647 17.7076C7.89401 17.5201 7.99937 17.2658 7.99937 17.0005V3.75754L11.9494 7.70754C12.138 7.88969 12.3906 7.99049 12.6528 7.98821C12.915 7.98593 13.1658 7.88076 13.3512 7.69535C13.5366 7.50995 13.6418 7.25913 13.644 6.99694C13.6463 6.73474 13.5455 6.48214 13.3634 6.29354L7.70637 0.636536Z" fill="#DAA520"/>
</svg>
